<?xml version="1.0" encoding="utf-8"?>
<!-- Generator: Adobe Illustrator 19.2.1, SVG Export Plug-In . SVG Version: 6.00 Build 0)  -->
<svg version="1.1" id="Layer_1" xmlns="http://www.w3.org/2000/svg" xmlns:xlink="http://www.w3.org/1999/xlink" x="0px" y="0px"
	 viewBox="0 0 300 300" style="enable-background:new 0 0 300 300;" xml:space="preserve">
<g>
	<path d="M155.4,10.5l41.7,84.4c0.9,1.8,2.6,3,4.5,3.3l93.2,13.5c4.9,0.7,6.9,6.8,3.3,10.2l-67.5,65.8c-1.4,1.4-2.1,3.4-1.7,5.3
		l15.9,92.8c0.8,4.9-4.3,8.6-8.7,6.3l-83.4-43.8c-1.8-0.9-3.8-0.9-5.6,0l-83.4,43.8c-4.4,2.3-9.5-1.4-8.7-6.3L71,193
		c0.3-1.9-0.3-3.9-1.7-5.3L1.8,122c-3.6-3.5-1.6-9.5,3.3-10.2l93.2-13.5c2-0.3,3.6-1.5,4.5-3.3l41.7-84.4
		C146.8,6,153.2,6,155.4,10.5z"/>
</g>
</svg>
