<svg xmlns="http://www.w3.org/2000/svg" viewBox="0 0 300 300"><path d="M217.4 6c-51.1-5.8-97.1 30.8-103 81.8-2.4 21 2.4 41.1 12.4 58l.8 1.6c5.6-1 15-.3 23.3 12.2.3.5 19 33 42.4 24.5 1.4-.5 2.8.2 3.3 1.6.3.9-.1 1.8-.7 2.5-.3.3-.5.6-.8.8-3.4 1.2-6.7 1.8-9.8 1.8-22.4 0-37.8-27.1-38.6-28.5-4.9-7.4-10-9.7-14.1-10.1-.7 0-1.4 0-2.1.1-2.2.3-4.4.8-6.4 2-8.4 5-9.7 18-3.6 24.9 2.8 2.3 5.4 4.6 7.7 6.9 1 1 1.9 2 2.8 3 8.3 9.2 13.3 19.1 14.9 29.3.2 1.4.2 2.6.3 3.9 20.6 23.5 43.5 11.8 46.7 10 1.1-.1 2.1-.1 3.1 0 .3.2.7.3.9.6.4.6.4 1.4.2 2.1-.2.6-.5 1.1-1.1 1.5-.2.1-8.9 5.3-20.9 5.3-8.6 0-18.9-2.7-28.8-12l-.2-.2c-.2 1.9-.5 3.6-.9 5.3-2.1 8.9-6.3 14.6-6.5 15-.5.6-1.3 1-2 1-.5 0-1.1-.2-1.6-.5-1.1-.9-1.4-2.5-.5-3.6 0 0 .6-.8 1.4-2.2 2.3-4.1 6.6-13.5 4.9-25.5-1.6-11-7.8-21.6-18.5-31.5h-.2l-2.5-2.5c-1.3-1.1-2.6-2.2-4-3.3-.1 0-.1-.1-.2-.1-9.7-6.4-19.7-9.7-19.6-9.7.1.1-13.5-4.5-29-2.7-15.5 1.5-31 9.2-35.8 12-2.7 1.5-5 2.8-7.1 4-.9-1-1.9-2.3-3.1-3.3-.2-.2-.4-.5-.7-.7-4.1-3.7-8.5-5.9-14-6.3-6.2-.2-6.6 4.8-5.9 8.3.5 2.5 3.3 20.9 5.1 30.5.7 3.6 1.6 5.6 1.6 5.5.4 1.1.9 2.3 1.5 3.4 6.3 12.7 21.8 18.1 34.5 11.7 2.1-1 5.2-2.4 8.8-3.8.7-.3 1.1-.5 1.7-.8 1.2-16.1 8.9-24.2 9.3-24.6 1-1 2.6-1 3.6 0s1 2.6 0 3.6c-.3.4-7.3 7.8-8 22.8 0 1.8.1 4.1.4 7.3.3 1.8.8 3.6 1.3 5.5 26.5 90.8 142.5 36 168.4 7.4 14.7-16.2 24.6-34.6 26.6-48.5 1.2-8.1.8-12.9.3-18.7l.2-.9c-7.7-5.4-19.7-3.4-19.8-3.4-1.4.3-2.7-.7-3-2.1-.2-1.4.7-2.7 2.1-3 .6-.1 12.6-2.1 21.9 3.1l.1-.3c22.2-14.7 39.1-40.8 42.5-69.3 5.7-50.7-31-96.9-82-102.7"/></svg>