<svg xmlns="http://www.w3.org/2000/svg" viewBox="0 0 300 300"><path d="M241.3 29.6h-11.9v7.7h11.9c5 0 9.1 4 9.1 9.1v237c0 5-4 9.1-9.1 9.1H58.7c-5 0-9.1-4-9.1-9.1V46.3c0-5 4-9.1 9.1-9.1h11.9v-7.6H58.7c-9.2 0-16.7 7.5-16.7 16.7v237c0 9.2 7.5 16.7 16.7 16.7h182.5c9.2 0 16.7-7.5 16.7-16.7v-237c0-9.2-7.5-16.7-16.6-16.7z"/><path d="M212.8 21.9h-38V5.7c0-3.2-2.6-5.7-5.7-5.7H131c-3.2 0-5.7 2.6-5.7 5.7v16.2H87.1c-3.2 0-5.7 2.6-5.7 5.7v15c0 3.2 2.6 5.7 5.7 5.7h125.7c3.2 0 5.7-2.6 5.7-5.7V27.7c0-3.2-2.5-5.8-5.7-5.8zM181.5 96.8H87.1c-3.2 0-5.7 2.6-5.7 5.7 0 3.2 2.6 5.7 5.7 5.7h94.3c3.2 0 5.7-2.6 5.7-5.7.1-3.2-2.4-5.7-5.6-5.7zM181.5 124.6H87.1c-3.2 0-5.7 2.6-5.7 5.7 0 3.2 2.6 5.7 5.7 5.7h94.3c3.2 0 5.7-2.6 5.7-5.7.1-3.1-2.4-5.7-5.6-5.7zM124.7 152.3H87.2c-3.2 0-5.7 2.6-5.7 5.7 0 3.2 2.6 5.7 5.7 5.7h37.5c3.2 0 5.7-2.6 5.7-5.7s-2.5-5.7-5.7-5.7z"/></svg>