<svg id="Layer_1" xmlns="http://www.w3.org/2000/svg" viewBox="0 0 300 85"><style>.st0{fill:#2e9ec6}.st1{fill:#f26759}</style><path class="st0" d="M32 69.3c0-.3-3.1-14.4-6-23.1-.5-1.6-1.1-3.1-1.6-4.2l.5-.1c1.5 0 2.3-.5 2.7-1.3.3-.6.4-1.2.4-1.9 0-.2 0-.4-.1-.6-.1-.8-.9-1.7-1.9-2.7l-.4-.4c-.6-.5-1.3-1.1-1.9-1.6s-1.2-1-1.6-1.4c-.1-.1-.5-1-.9-1.7-.3-1.6-.1-3.6-.1-3.6.2 0 .5 0 .6-.1 4.7-1 8.2-5.3 8.2-10.4 0-1.9-.5-3.6-1.3-5.2-.4-.9-1.7-2.4-2-2.6.4-1 1.2-3.5-.2-6.4-.2-.4-.7-.5-1.1-.4-.2 0-3.5.6-6.1 2-.7.4-.8 1.4-.7 2.1-.3 0-.6.1-.8.1 0-1.5-1.1-2.9-2.7-3.1h-.7c-.3-.9-1-1.6-1.9-1.9-1.1-.3-2.2.2-2.8 1.1C9.1 1.1 8.3.5 7.3.2 5.3-.3 3.2 1 2.7 3c-.2.6-.1 1.3 0 1.9C1.6 4.8.5 5.5.3 6.6c-.2.8.1 1.6.6 2.1-.4.4-.6.8-.7 1.4-.2 1.1.5 2.2 1.5 2.5v.1c-.6 1.7.3 3.5 1.9 4 .7.2 1.4.2 2.1 0-.1 1.1.7 2.1 1.7 2.3.8 0 1.5-.3 2-.9.2 1.3.7 2.5 1.4 3.6 1 1.4 2.6 3.1 5.4 4.5.1 0 .1 0 .2.1 0 1.2-.3 2.5-.5 3.3-.2.6-.4 1.3-.7 2.3-.1.4-.2.8-.3 1.3-.2.8-.4 1.6-.4 2.4 0 .3-.1.5-.1.8v.4c0 .9 0 1.9.2 2.8.7 3.1 2.1 5.9 2.3 9 0 .4 0 .9.1 1.3-.1 3.1-.6 6.7-1.2 10.1-.5 2.5-1.6 5.3-2.1 7.9-.2.9-.3 1.8-.3 2.6 0 1.2 1.3 1.3 1.3 1.3h2.4c0 3.1 0 7 .1 8.8v.3c0 .4.1.9.3 1.2 0 0 0 .1.1.1.6 1.2 1.7 2 3.1 2h4.2c.4 0 1-.1.8-.9s-.8-1.4-1.6-1.9c0-.1.1-.3.1-.4.4-1.9 1-5.2 1.6-7.9.1-.3.1-.9.2-1.4 1.5 0 2.9-.1 3.7-.1 2.5 0 2.7-1.2 2.7-2-.4-.1-.4-.2-.4-.3zM19.6 5.6h-.5.5c2.7 0 5.1 1 7 2.7-1.9-1.7-4.3-2.7-7-2.7z"/><path class="st1" d="M44.6 66.5c0-10.3 7.9-18.8 18.6-18.8 5.6 0 9.5 1.8 12.5 4.5.5.5 1.3 1.5 1.3 2.8 0 2.1-1.7 3.7-3.8 3.7-1 0-1.9-.4-2.4-.8-2.1-1.8-4.4-3-7.6-3-6 0-10.4 5.1-10.4 11.4v.1c0 6.4 4.4 11.4 10.7 11.4 3.3 0 5.8-1.3 8-3.2.5-.4 1.3-.9 2.2-.9 2 0 3.5 1.6 3.5 3.6 0 1.1-.4 2-1.2 2.6-3.2 3-7 5.1-13 5.1-10.6 0-18.4-8.4-18.4-18.5M80.2 66.5c0-10.3 8.1-18.8 19.1-18.8s19 8.3 19 18.6v.1c0 10.2-8.1 18.6-19.2 18.6-10.9 0-18.9-8.4-18.9-18.5m29.9 0c0-6.4-4.5-11.6-11-11.6-6.6 0-10.8 5.1-10.8 11.4v.1c0 6.2 4.5 11.4 10.9 11.4 6.7 0 10.9-5.2 10.9-11.3M124.6 52.1c0-2.3 1.8-4.1 4.1-4.1s4.1 1.8 4.1 4.1v1.8c2.3-3.3 5.6-6.2 11.2-6.2 8.1 0 12.7 5.4 12.7 13.7v19.1c0 2.3-1.8 4.1-4.1 4.1s-4.1-1.8-4.1-4.1V63.8c0-5.6-2.8-8.7-7.7-8.7-4.7 0-8.1 3.3-8.1 8.9v16.5c0 2.3-1.8 4.1-4.1 4.1-2.2 0-4.1-1.8-4.1-4.1V52.1h.1zM164.5 52.1c0-2.3 1.8-4.1 4.1-4.1s4.1 1.8 4.1 4.1v1.8c2.3-3.3 5.6-6.2 11.2-6.2 8.1 0 12.7 5.4 12.7 13.7v19.1c0 2.3-1.8 4.1-4.1 4.1s-4.1-1.8-4.1-4.1V63.8c0-5.6-2.8-8.7-7.7-8.7-4.7 0-8.1 3.3-8.1 8.9v16.5c0 2.3-1.8 4.1-4.1 4.1-2.2 0-4.1-1.8-4.1-4.1V52.1h.1zM220.9 85c-10.4 0-18.4-7.5-18.4-18.6v-.1c0-10.2 7.2-18.6 17.5-18.6 11.4 0 17 9.3 17 17.6 0 2.3-1.8 3.9-3.9 3.9h-22.4c.9 5.8 5 9.1 10.3 9.1 3.5 0 6.2-1.2 8.5-3.1.6-.5 1.1-.7 2.1-.7 1.8 0 3.3 1.4 3.3 3.3 0 1-.5 1.9-1.1 2.5-3.3 2.8-7.4 4.7-12.9 4.7m8.1-21.2c-.5-5.3-3.7-9.4-9.1-9.4-5 0-8.5 3.9-9.3 9.4H229zM241.4 66.5c0-10.3 7.9-18.8 18.6-18.8 5.6 0 9.5 1.8 12.5 4.5.5.5 1.3 1.5 1.3 2.8 0 2.1-1.7 3.7-3.8 3.7-1 0-1.9-.4-2.4-.8-2.1-1.8-4.4-3-7.7-3-6 0-10.4 5.1-10.4 11.4v.1c0 6.4 4.4 11.4 10.7 11.4 3.3 0 5.8-1.3 8-3.2.5-.4 1.3-.9 2.2-.9 2 0 3.5 1.6 3.5 3.6 0 1.1-.4 2-1.2 2.6-3.2 3-7 5.1-13 5.1-10.5 0-18.3-8.4-18.3-18.5M281.7 74.3V55.4h-1.4c-2 0-3.5-1.6-3.5-3.5 0-2 1.6-3.5 3.5-3.5h1.4v-6.1c0-2.2 1.8-4.1 4.1-4.1 2.2 0 4.1 1.8 4.1 4.1v6.1h6.4c2 0 3.6 1.6 3.6 3.5 0 2-1.6 3.5-3.6 3.5h-6.4v17.5c0 3.2 1.6 4.5 4.4 4.5.9 0 1.8-.2 2-.2 1.8 0 3.5 1.5 3.5 3.4 0 1.5-1 2.7-2.2 3.2-1.8.6-3.5.9-5.6.9-6.1.1-10.3-2.6-10.3-10.4"/><path class="st0" d="M47 3.4C47 2 48.2.8 49.6.8c1.5 0 2.6 1.2 2.6 2.6v3.8c2.3-3.8 6-6.8 12-6.8 8.5 0 13.4 5.7 13.4 14v19.4c0 1.5-1.2 2.6-2.6 2.6-1.5 0-2.6-1.2-2.6-2.6V15.6c0-6.5-3.5-10.5-9.7-10.5-6 0-10.5 4.4-10.5 11v17.7c0 1.5-1.1 2.6-2.6 2.6S47 35.2 47 33.8V3.4zM114.7 33.8c0 1.4-1.1 2.6-2.6 2.6-1.4 0-2.6-1.2-2.6-2.6V30c-2.4 3.8-6 6.8-12 6.8-8.5 0-13.4-5.7-13.4-14V3.4c0-1.5 1.1-2.6 2.6-2.6 1.4 0 2.6 1.2 2.6 2.6v18.1c0 6.5 3.5 10.6 9.7 10.6 6 0 10.5-4.4 10.5-11V3.4c0-1.5 1.1-2.6 2.6-2.6 1.4 0 2.6 1.2 2.6 2.6v30.4zM123.7 3.4c0-1.4 1.2-2.6 2.6-2.6 1.5 0 2.6 1.2 2.6 2.6V10c2.6-5.8 7.7-9.3 12.1-9.3 1.6 0 2.6 1.2 2.6 2.6s-.9 2.4-2.3 2.6c-6.8.8-12.3 5.9-12.3 16v11.9c0 1.4-1.1 2.6-2.6 2.6s-2.6-1.2-2.6-2.6V3.4h-.1zM146.5 32.3c-.5-.3-.9-1-.9-1.9 0-1.2 1-2.2 2.3-2.2.5 0 .9.1 1.3.4 3.6 2.4 7.3 3.7 11.1 3.7 4.2 0 7.2-2.2 7.2-5.6v-.1c0-3.5-4.1-4.9-8.7-6.2-5.5-1.6-11.6-3.5-11.6-9.9v-.1c0-6 5-10 11.9-10 3.7 0 7.8 1.2 11.2 3 .7.4 1.3 1.2 1.3 2.2 0 1.2-1 2.2-2.3 2.2-.5 0-.9-.1-1.2-.3-3-1.7-6.2-2.7-9.1-2.7-4.1 0-6.8 2.2-6.8 5.1v.2c0 3.3 4.3 4.6 9 6 5.4 1.6 11.2 3.7 11.2 10v.1c0 6.6-5.5 10.5-12.5 10.5-4.6 0-9.6-1.7-13.4-4.4zM193.3 36.9c-9.6 0-17.5-7.4-17.5-18.2v-.1c0-10.1 7.1-18.2 16.8-18.2 10.4 0 16.2 8.5 16.2 17.7 0 1.4-1.2 2.4-2.4 2.4h-25.3c.7 7.6 6.1 11.8 12.3 11.8 4.3 0 7.5-1.7 10.1-4.1.4-.3.9-.6 1.5-.6 1.3 0 2.3 1 2.3 2.2 0 .6-.3 1.2-.8 1.7-3.3 3.3-7.2 5.4-13.2 5.4zm10.4-20.3c-.5-6.4-4.2-11.9-11.2-11.9-6.1 0-10.7 5.1-11.4 11.9h22.6z"/></svg>