<?xml version="1.0" encoding="utf-8"?>
<!-- Generator: Adobe Illustrator 19.2.1, SVG Export Plug-In . SVG Version: 6.00 Build 0)  -->
<svg version="1.1" id="Layer_1" xmlns="http://www.w3.org/2000/svg" xmlns:xlink="http://www.w3.org/1999/xlink" x="0px" y="0px"
	 viewBox="0 0 300 300" style="enable-background:new 0 0 300 300;" xml:space="preserve">
<g>
	<path d="M296.8,137.4L156.6,18.7c-3.7-3.1-9.4-3.1-13.1,0L3.1,137.4c-2.8,2.4-3.9,6.1-2.6,9.5c1.4,3.7,5,6.1,9.2,6.1H45v130.6
		h211.5V153.1h33.8c4.2,0,7.8-2.4,9.2-6.1C300.7,143.5,299.7,139.8,296.8,137.4z M246.7,143.2v130.6H54.9V143.2l-44,0.6L150.3,26.2
		l138.2,117.1C288.5,143.2,246.7,143.2,246.7,143.2z M290.5,145L290.5,145l3.2-3.7L290.5,145z"/>
	<path d="M129.3,125.6v29.1h-29c-5.7,0-10.4,4.7-10.4,10.4v20.6c0,5.7,4.7,10.3,10.4,10.3h29v29c0,5.7,4.6,10.3,10.3,10.3h20.6
		c5.7,0,10.3-4.6,10.3-10.3v-29h29.1c5.7,0,10.3-4.6,10.3-10.3v-20.6c0-5.7-4.6-10.4-10.3-10.4h-29.1v-29.1
		c0-5.7-4.6-10.4-10.3-10.4h-20.6C133.9,115.3,129.3,119.9,129.3,125.6z"/>
</g>
</svg>
