<?xml version="1.0" encoding="utf-8"?>
<!-- Generator: Adobe Illustrator 19.2.1, SVG Export Plug-In . SVG Version: 6.00 Build 0)  -->
<svg version="1.1" id="Layer_1" xmlns="http://www.w3.org/2000/svg" xmlns:xlink="http://www.w3.org/1999/xlink" x="0px" y="0px"
	 viewBox="0 0 300 300" style="enable-background:new 0 0 300 300;" xml:space="preserve">
<g>
	<g>
		<path d="M241.3,29.6h-11.9v2.7v5h11.9c5,0,9.1,4,9.1,9.1v237c0,5-4,9.1-9.1,9.1H58.7c-5,0-9.1-4-9.1-9.1V46.3c0-5,4-9.1,9.1-9.1
			h11.9v-5v-2.6H58.7c-9.2,0-16.7,7.5-16.7,16.7v237c0,9.2,7.5,16.7,16.7,16.7h182.5c9.2,0,16.7-7.5,16.7-16.7v-237
			C257.9,37.1,250.4,29.6,241.3,29.6z"/>
	</g>
	<g>
		<path d="M212.8,21.9h-38V5.7c0-3.2-2.6-5.7-5.7-5.7H131c-3.2,0-5.7,2.6-5.7,5.7v16.2H87.1c-3.2,0-5.7,2.6-5.7,5.7v2v2.7v5v5.3
			c0,3.2,2.6,5.7,5.7,5.7h125.7c3.2,0,5.7-2.6,5.7-5.7v-5.4v-5v-2.6v-1.9C218.5,24.5,216,21.9,212.8,21.9z"/>
	</g>
	<g>
		<path d="M181.5,96.8H87.1c-3.2,0-5.7,2.6-5.7,5.7c0,3.2,2.6,5.7,5.7,5.7h94.3c3.2,0,5.7-2.6,5.7-5.7
			C187.2,99.3,184.7,96.8,181.5,96.8z"/>
	</g>
	<g>
		<path d="M181.5,124.6H87.1c-3.2,0-5.7,2.6-5.7,5.7c0,3.2,2.6,5.7,5.7,5.7h94.3c3.2,0,5.7-2.6,5.7-5.7
			C187.2,127.2,184.7,124.6,181.5,124.6z"/>
	</g>
	<g>
		<path d="M124.7,152.3H87.2c-3.2,0-5.7,2.6-5.7,5.7c0,3.2,2.6,5.7,5.7,5.7h37.5c3.2,0,5.7-2.6,5.7-5.7S127.9,152.3,124.7,152.3z"/>
	</g>
</g>
</svg>
