<?xml version="1.0" encoding="utf-8"?>
<!-- Generator: Adobe Illustrator 19.2.1, SVG Export Plug-In . SVG Version: 6.00 Build 0)  -->
<svg version="1.1" id="Layer_1" xmlns="http://www.w3.org/2000/svg" xmlns:xlink="http://www.w3.org/1999/xlink" x="0px" y="0px"
	 viewBox="0 0 300 300" style="enable-background:new 0 0 300 300;" xml:space="preserve">
<g>
	<g>
		<path d="M105.2,271.4C52.1,271.4,9,228.3,9,175.3c0-50.7,39.4-92.2,89.3-95.8c-1.6,10.6,0.5,19.7,0.7,20.3
			c0.7,2.9,3.3,4.8,6.1,4.8c0.5,0,1-0.1,1.5-0.2c3.4-0.8,5.5-4.2,4.6-7.6c0-0.1-1.8-8.4,0-17.4c24,1.5,45.7,11.7,61.6,27.7
			c2.8-1.4,5.7-2.7,8.6-3.9c-17.2-18.2-40.6-30.3-66.9-32.6c0.5-0.9,1-1.8,1.6-2.6c5.6-7.1,15.4-10.7,29.1-10.7
			c3.5,0,6.3-2.8,6.3-6.3c0-3.5-2.8-6.3-6.3-6.3c-13.8,0-24.6,3.2-32.6,9.3c-0.7-3.9-1.8-7.6-3.2-11.3c-1.9-4.8-4.1-9.6-6.7-14.1
			C96.3,17.9,82,17.1,73.4,23.8c-11.4,8.8-10.5,26.8,2,34c2,1.1,4.3,1.8,6.6,2.2c8.1,1.5,16.2,1.3,24.3,0.3c-2.5,3.2-4.1,6.6-5.4,10
			C44.9,72.7,0,118.8,0,175.3c0,58,47.2,105.2,105.2,105.2c18.6,0,35.9-4.9,51.1-13.3c-2.5-2-4.9-4.1-7.1-6.4
			C135.9,267.5,120.9,271.4,105.2,271.4z"/>
	</g>
	<g>
		<path d="M227.4,110c2.1-2.1,4.6-3.8,7.5-5.2c3.4-1.6,7.4-2.7,11.9-3.3c2.5-0.3,5-0.6,7.8-0.6c3.5,0,6.3-2.8,6.3-6.3
			s-2.8-6.3-6.3-6.3c-13.2,0-23.8,2.9-31.7,8.6c-2.4,1.7-4.5,3.8-6.3,6c-0.3,0.3-0.7,0.6-1,0.9c-1.4,1.8-2.5,3.7-3.5,5.6
			c-7.6,0.4-15.1,1.8-22.1,4.2c-2.9,1-5.8,2.2-8.6,3.5c-28.4,13.2-48.2,42.1-48.2,75.5c0,24.3,10.4,46.1,27,61.3
			c2.3,2.1,4.6,4,7.1,5.9c13.8,10.1,30.8,16.2,49.2,16.2c46.1,0,83.4-37.3,83.4-83.4C300,150.2,268.4,115.3,227.4,110z"/>
	</g>
</g>
</svg>
