<?xml version="1.0" encoding="utf-8"?>
<!-- Generator: Adobe Illustrator 19.2.1, SVG Export Plug-In . SVG Version: 6.00 Build 0)  -->
<svg version="1.1" id="Layer_1" xmlns="http://www.w3.org/2000/svg" xmlns:xlink="http://www.w3.org/1999/xlink" x="0px" y="0px"
	 viewBox="0 0 300 300" style="enable-background:new 0 0 300 300;" xml:space="preserve">
<g>
	<path d="M131,65.2C127.4,32.3,99.5,6.6,65.7,6.6C31.8,6.6,4,32.3,0.4,65.2H131z"/>
</g>
<g>
	<path d="M118.5,89.5c-7.3,22.5-28.3,38.3-52.8,38.3s-45.6-15.8-52.8-38.3L118.5,89.5 M131,79.4H0.4C4,112.3,31.8,138,65.7,138
		C99.5,138,127.4,112.4,131,79.4"/>
</g>
<g>
	<path d="M115,176.6c22.5,7.3,38.3,28.3,38.3,52.8S137.5,275,115,282.1L115,176.6 M104.9,164.1v130.6c32.9-3.6,58.6-31.4,58.6-65.3
		S137.8,167.7,104.9,164.1"/>
</g>
<g>
	<path d="M80.6,176.6v105.7c-22.5-7.3-38.3-28.3-38.3-52.8C42.2,204.9,58.1,183.8,80.6,176.6 M90.7,164.1
		c-32.9,3.6-58.6,31.4-58.6,65.3s25.6,61.7,58.6,65.3V164.1z"/>
</g>
<g>
	<path d="M163.5,130.2c-10.9,24.3-0.1,52.9,24.2,63.9c24.3,10.9,52.9,0.1,63.8-24.2l19-42.2l-88.1-39.6L163.5,130.2z"/>
</g>
<g>
	<path d="M250.9,15.5c5.4,0,10.7,1.1,15.6,3.4c19.2,8.6,27.8,31.3,19.1,50.5l-14.9,33l-69.6-31.3l14.9-33
		C222.2,24.4,235.9,15.5,250.9,15.5 M250.9,5.4c-18.4,0-36,10.6-44.1,28.5l-19,42.2l88.1,39.6l19-42.3c10.9-24.3,0.1-52.9-24.2-63.8
		C264.2,6.8,257.5,5.4,250.9,5.4"/>
</g>
</svg>
