<?xml version="1.0" encoding="utf-8"?>
<!-- Generator: Adobe Illustrator 19.2.1, SVG Export Plug-In . SVG Version: 6.00 Build 0)  -->
<svg version="1.1" id="Layer_1" xmlns="http://www.w3.org/2000/svg" xmlns:xlink="http://www.w3.org/1999/xlink" x="0px" y="0px"
	 viewBox="0 0 300 300" style="enable-background:new 0 0 300 300;" xml:space="preserve">
<g>
	<path d="M280.9,132.8H166.3V18.3c0-10.2-8.3-18.5-18.4-18.5h4.2c-10.3,0-18.5,8.3-18.5,18.5v114.5H19.1c-10.3,0-18.5,8.3-18.5,18.5
		v-2.6c0,10.2,8.2,18.5,18.5,18.5h114.5v114.5c0,10.2,8.3,18.5,18.5,18.5h-4.2c10.2,0,18.4-8.3,18.4-18.5V167.1h114.6
		c10.2,0,18.5-8.3,18.5-18.5v2.6C299.3,141.1,291.1,132.8,280.9,132.8"/>
</g>
</svg>
