<?xml version="1.0" encoding="utf-8"?>
<!-- Generator: Adobe Illustrator 19.2.1, SVG Export Plug-In . SVG Version: 6.00 Build 0)  -->
<svg version="1.1" id="Layer_1" xmlns="http://www.w3.org/2000/svg" xmlns:xlink="http://www.w3.org/1999/xlink" x="0px" y="0px"
	 viewBox="0 0 300 300" style="enable-background:new 0 0 300 300;" xml:space="preserve">
<g>
	<g>
		<path d="M150.1,158.8c-43.8,0-79.4-35.6-79.4-79.4C70.7,35.6,106.3,0,150.1,0s79.4,35.6,79.4,79.4S193.8,158.8,150.1,158.8z
			 M150.1,21.6c-31.9,0-57.8,26-57.8,57.8s26,57.8,57.8,57.8s57.8-26,57.8-57.8S181.9,21.6,150.1,21.6z"/>
	</g>
	<g>
		<path d="M22.9,300c-1.2,0-2.5-0.2-3.7-0.6c-5.6-2-8.5-8.2-6.5-13.8C33.4,227.8,88.6,189,150,189s116.5,38.8,137.3,96.5
			c2,5.6-0.9,11.8-6.5,13.8c-5.6,2-11.8-0.9-13.8-6.5c-17.7-49.2-64.8-82.3-117-82.3s-99.3,33.1-117,82.3
			C31.4,297.2,27.3,300,22.9,300z"/>
	</g>
</g>
</svg>
