<svg xmlns="http://www.w3.org/2000/svg" viewBox="0 0 299.3 288.3"><path d="M216.9.6C166-5.2 120.1 31.3 114.3 82.1c-2.4 20.9 2.4 41 12.4 57.8l.8 1.6c5.6-1 14.9-.3 23.2 12.2.3.5 18.9 32.9 42.2 24.4 1.4-.5 2.8.2 3.3 1.6.3.9-.1 1.8-.7 2.5-.3.3-.5.6-.8.8-3.4 1.2-6.7 1.8-9.8 1.8-22.3 0-37.7-27-38.5-28.4-4.9-7.4-10-9.7-14-10.1-.7 0-1.4 0-2.1.1-2.2.3-4.4.8-6.4 2-8.4 5-9.7 17.9-3.6 24.8 2.8 2.3 5.4 4.6 7.7 6.9 1 1 1.9 2 2.8 3 8.3 9.2 13.3 19 14.8 29.2.2 1.4.2 2.6.3 3.9 20.5 23.4 43.3 11.8 46.5 10 1.1-.1 2.1-.1 3.1 0 .3.2.7.3.9.6.4.6.4 1.4.2 2.1-.2.6-.5 1.1-1.1 1.5-.2.1-8.9 5.3-20.8 5.3-8.6 0-18.8-2.7-28.7-12l-.2-.2c-.2 1.9-.5 3.6-.9 5.3-2.1 8.9-6.3 14.5-6.5 14.9-.5.6-1.3 1-2 1-.5 0-1.1-.2-1.6-.5-1.1-.9-1.4-2.5-.5-3.6 0 0 .6-.8 1.4-2.2 2.3-4.1 6.6-13.5 4.9-25.4-1.6-11-7.8-21.5-18.4-31.4h-.2l-2.5-2.5c-1.3-1.1-2.6-2.2-4-3.3-.1 0-.1-.1-.2-.1-9.7-6.4-19.6-9.7-19.5-9.7.1.1-13.5-4.5-28.9-2.7-15.4 1.5-30.9 9.2-35.7 12-2.7 1.5-5 2.8-7.1 4-.9-1-1.9-2.3-3.1-3.3-.2-.2-.4-.5-.7-.7-4.1-3.7-8.5-5.9-13.9-6.3-6.2-.2-6.6 4.8-5.9 8.3.5 2.5 3.3 20.8 5.1 30.4.7 3.6 1.6 5.6 1.6 5.5.4 1.1.9 2.3 1.5 3.4 6.3 12.7 21.7 18 34.4 11.7 2.1-1 5.2-2.4 8.8-3.8.7-.3 1.1-.5 1.7-.8 1.2-16 8.9-24.1 9.3-24.5 1-1 2.6-1 3.6 0s1 2.6 0 3.6c-.3.4-7.3 7.8-8 22.7 0 1.8.1 4.1.4 7.3.3 1.8.8 3.6 1.3 5.5 26.4 90.5 142 35.9 167.8 7.4 14.6-16.1 24.5-34.5 26.5-48.3 1.2-8.1.8-12.9.3-18.6l.2-.9c-7.7-5.4-19.6-3.4-19.7-3.4-1.4.3-2.7-.7-3-2.1-.2-1.4.7-2.7 2.1-3 .6-.1 12.6-2.1 21.8 3.1l.1-.3c22.1-14.6 39-40.7 42.3-69.1C304.2 52.4 267.7 6.4 216.9.6"/></svg>