<svg xmlns="http://www.w3.org/2000/svg" viewBox="0 0 300 300"><path d="M296.8 137.4L156.6 18.7c-3.7-3.1-9.4-3.1-13.1 0L3.1 137.4c-2.8 2.4-3.9 6.1-2.6 9.5 1.4 3.7 5 6.1 9.2 6.1H45v130.6h211.5V153.1h33.8c4.2 0 7.8-2.4 9.2-6.1 1.2-3.5.2-7.2-2.7-9.6zm-50.1 5.8v130.6H54.9V143.2l-44 .6L150.3 26.2l138.2 117.1c0-.1-41.8-.1-41.8-.1zm43.8 1.8l3.2-3.7-3.2 3.7z"/><path d="M129.3 125.6v29.1h-29c-5.7 0-10.4 4.7-10.4 10.4v20.6c0 5.7 4.7 10.3 10.4 10.3h29v29c0 5.7 4.6 10.3 10.3 10.3h20.6c5.7 0 10.3-4.6 10.3-10.3v-29h29.1c5.7 0 10.3-4.6 10.3-10.3v-20.6c0-5.7-4.6-10.4-10.3-10.4h-29.1v-29.1c0-5.7-4.6-10.4-10.3-10.4h-20.6c-5.7.1-10.3 4.7-10.3 10.4z"/></svg>