<svg id="Layer_1" xmlns="http://www.w3.org/2000/svg" viewBox="0 0 299.3 266.7"><style>.st0{fill:#233f56}</style><path class="st0" d="M129 109v29h-28.9c-5.7 0-10.4 4.7-10.4 10.4V169c0 5.7 4.7 10.3 10.4 10.3H129v28.9c0 5.7 4.6 10.3 10.3 10.3h20.6c5.7 0 10.3-4.6 10.3-10.3v-28.9h29c5.7 0 10.3-4.6 10.3-10.3v-20.6c0-5.7-4.6-10.4-10.3-10.4h-29v-29c0-5.7-4.6-10.4-10.3-10.4h-20.6c-5.7.1-10.3 4.7-10.3 10.4zm31.5 0v38.7l39.3.6v20.6l-.6.6h-38.8l-.6 39.3-21.1-.5v-38.7l-39.3-.6.6-21.1h38.7l.6-39.3 21.2.4z"/><path class="st0" d="M296.1 120.8L156.2 2.3c-3.7-3.1-9.4-3.1-13.1 0L3.1 120.8c-2.8 2.4-3.9 6.1-2.6 9.5 1.4 3.7 5 6.1 9.2 6.1h35.2v130.3h211V136.4h33.7c4.2 0 7.8-2.4 9.2-6.1 1.2-3.4.2-7.1-2.7-9.5zm-50 5.8v130.3H54.7V126.6l-43.9.6L149.9 9.8l137.9 116.8h-41.7zm43.7 1.7l3.2-3.7-3.2 3.7z"/><g><path class="st0" d="M199.2 142.9h-33.9V109c0-3-2.4-5.5-5.4-5.5h-20.6c-3 0-5.5 2.4-5.5 5.5v33.9H100c-3 0-5.5 2.4-5.5 5.5V169c0 3 2.4 5.5 5.5 5.5h33.8v33.8c0 3 2.4 5.5 5.5 5.5h20.6c3 0 5.4-2.4 5.4-5.5v-33.8h33.9c3 0 5.5-2.4 5.5-5.5v-20.6c0-3.1-2.4-5.5-5.5-5.5m-99.2 26v-20.6 20.6z"/></g></svg>