<svg id="Layer_1" xmlns="http://www.w3.org/2000/svg" viewBox="0 0 299.3 415.7"><style>.st0{fill:#233f56}</style><path class="st0" d="M276.1 41h-16.5V51.6h16.5c6.9 0 12.6 5.6 12.6 12.6v328.4c0 6.9-5.6 12.6-12.6 12.6H23.2c-6.9 0-12.6-5.6-12.6-12.6V64.1c0-6.9 5.6-12.6 12.6-12.6h16.5V41H23.2C10.4 41 0 51.4 0 64.1v328.4c0 12.8 10.4 23.2 23.2 23.2h252.9c12.8 0 23.2-10.4 23.2-23.2V64.1c-.1-12.7-10.5-23.1-23.2-23.1z"/><path class="st0" d="M236.7 30.4H184V7.9c0-4.4-3.6-7.9-7.9-7.9h-52.8c-4.4 0-7.9 3.6-7.9 7.9v22.4H62.5c-4.4 0-7.9 3.6-7.9 7.9V59c0 4.4 3.6 7.9 7.9 7.9h174.2c4.4 0 7.9-3.6 7.9-7.9V38.4c0-4.4-3.5-8-7.9-8zM193.3 134.1H62.5c-4.4 0-7.9 3.6-7.9 7.9 0 4.4 3.6 7.9 7.9 7.9h130.7c4.4 0 7.9-3.6 7.9-7.9.1-4.4-3.4-7.9-7.8-7.9zM193.3 172.6H62.5c-4.4 0-7.9 3.6-7.9 7.9 0 4.4 3.6 7.9 7.9 7.9h130.7c4.4 0 7.9-3.6 7.9-7.9.1-4.3-3.4-7.9-7.8-7.9zM114.6 211.1h-52c-4.4 0-7.9 3.6-7.9 7.9 0 4.4 3.6 7.9 7.9 7.9h52c4.4 0 7.9-3.6 7.9-7.9 0-4.3-3.5-7.9-7.9-7.9z"/></svg>