<svg xmlns="http://www.w3.org/2000/svg" viewBox="0 0 300 300"><path d="M274.6 75.1c-16.8-31.8-44.4-55.3-78.1-67-1.6-.6-3.2-1.2-4.9-1.8-4.7-1.5-9.6-2.5-14.4-3.5-7.4-1.5-14.8-2.5-22.4-2.8H150C87.9 0 33.9 39.9 15.5 99.2c-11.1 35.9-7.5 74 10 107.3s47 57.7 83 68.8c.5.1.8.2 1.3.3 6.3 1.9 12.7 3.4 19.1 4.3 21.3 3.2 43.3 1.5 64-5.2 43.9 25.3 48.3 25.3 51.3 25.3l2.9-.1 2-1.4c1.2-.8 2.3-1.6 2.9-3.6 1.7-4.5 1.4-15.8-3.2-50.6-.1-1-.3-1.9-.4-2.9 16.8-16.4 29.2-36.7 36.1-58.9 11.1-36 7.6-74.1-9.9-107.4z"/></svg>