<svg id="Layer_1" xmlns="http://www.w3.org/2000/svg" viewBox="0 0 299.3 318.2"><style>.st0{fill:#233f56}</style><path class="st0" d="M282 79.7C264.2 46 234.9 21 199.2 8.6c-1.7-.6-3.4-1.3-5.2-1.9-5-1.6-10.2-2.6-15.3-3.7-7.8-1.6-15.7-2.7-23.8-3h-5.1C84 0 26.7 42.3 7.2 105.2c-11.8 38.1-8 78.5 10.6 113.8s49.8 61.2 88 73c.5.1.9.2 1.4.3 6.7 2 13.5 3.6 20.3 4.6 22.6 3.4 45.9 1.6 67.9-5.5 46.6 26.8 51.2 26.8 54.4 26.8l3.1-.1 2.1-1.5c1.3-.9 2.4-1.7 3.1-3.8 1.8-4.8 1.5-16.8-3.4-53.7-.1-1.1-.3-2-.4-3.1 17.8-17.4 31-38.9 38.3-62.5 11.7-38.1 8-78.5-10.6-113.8z"/></svg>