<svg id="Layer_1" xmlns="http://www.w3.org/2000/svg" viewBox="0 0 299.3 260.3"><style>.st0{fill:#233f56}</style><path class="st0" d="M104.8 251C51.9 251 9 208 9 155.2c0-50.5 39.3-91.9 89-95.4-1.6 10.6.5 19.6.7 20.2.7 2.9 3.3 4.8 6.1 4.8.5 0 1-.1 1.5-.2 3.4-.8 5.5-4.2 4.6-7.6 0-.1-1.8-8.4 0-17.3 23.9 1.5 45.5 11.7 61.4 27.6 2.8-1.4 5.7-2.7 8.6-3.9-17.1-18.1-40.5-30.2-66.7-32.5.5-.9 1-1.8 1.6-2.6 5.6-7.1 15.3-10.7 29-10.7 3.5 0 6.3-2.8 6.3-6.3s-2.8-6.3-6.3-6.3c-13.7 0-24.5 3.2-32.5 9.3-.7-3.9-1.8-7.6-3.2-11.3-1.9-4.8-4.1-9.6-6.7-14C95.9-1.6 81.7-2.4 73.1 4.3c-11.4 8.8-10.5 26.7 2 33.9 2 1.1 4.3 1.8 6.6 2.2 8.1 1.5 16.1 1.3 24.2.3-2.5 3.2-4.1 6.6-5.4 10C44.7 53 0 98.9 0 155.2 0 213 47 260 104.8 260c18.5 0 35.8-4.9 50.9-13.3-2.5-2-4.9-4.1-7.1-6.4-13.2 6.8-28.1 10.7-43.8 10.7z"/><path class="st0" d="M226.6 90.1c2.1-2.1 4.6-3.8 7.5-5.2 3.4-1.6 7.4-2.7 11.9-3.3 2.5-.3 5-.6 7.8-.6 3.5 0 6.3-2.8 6.3-6.3s-2.8-6.3-6.3-6.3c-13.2 0-23.7 2.9-31.6 8.6-2.4 1.7-4.5 3.8-6.3 6-.3.3-.7.6-1 .9-1.4 1.8-2.5 3.7-3.5 5.6-7.6.4-15 1.8-22 4.2-2.9 1-5.8 2.2-8.6 3.5-28.3 13.2-48 41.9-48 75.2 0 24.2 10.4 45.9 26.9 61.1 2.3 2.1 4.6 4 7.1 5.9 13.7 10.1 30.7 16.1 49 16.1 45.9 0 83.1-37.2 83.1-83.1 0-42.2-31.5-77-72.3-82.3z"/></svg>