<svg xmlns="http://www.w3.org/2000/svg" viewBox="0 0 300 300"><path d="M105.2 271.4C52.1 271.4 9 228.3 9 175.3c0-50.7 39.4-92.2 89.3-95.8-1.6 10.6.5 19.7.7 20.3.7 2.9 3.3 4.8 6.1 4.8.5 0 1-.1 1.5-.2 3.4-.8 5.5-4.2 4.6-7.6 0-.1-1.8-8.4 0-17.4 24 1.5 45.7 11.7 61.6 27.7 2.8-1.4 5.7-2.7 8.6-3.9-17.2-18.2-40.6-30.3-66.9-32.6.5-.9 1-1.8 1.6-2.6 5.6-7.1 15.4-10.7 29.1-10.7 3.5 0 6.3-2.8 6.3-6.3s-2.8-6.3-6.3-6.3c-13.8 0-24.6 3.2-32.6 9.3-.7-3.9-1.8-7.6-3.2-11.3-1.9-4.8-4.1-9.6-6.7-14.1-6.4-10.7-20.7-11.5-29.3-4.8-11.4 8.8-10.5 26.8 2 34 2 1.1 4.3 1.8 6.6 2.2 8.1 1.5 16.2 1.3 24.3.3-2.5 3.2-4.1 6.6-5.4 10C44.9 72.7 0 118.8 0 175.3c0 58 47.2 105.2 105.2 105.2 18.6 0 35.9-4.9 51.1-13.3-2.5-2-4.9-4.1-7.1-6.4-13.3 6.7-28.3 10.6-44 10.6z"/><path d="M227.4 110c2.1-2.1 4.6-3.8 7.5-5.2 3.4-1.6 7.4-2.7 11.9-3.3 2.5-.3 5-.6 7.8-.6 3.5 0 6.3-2.8 6.3-6.3s-2.8-6.3-6.3-6.3c-13.2 0-23.8 2.9-31.7 8.6-2.4 1.7-4.5 3.8-6.3 6-.3.3-.7.6-1 .9-1.4 1.8-2.5 3.7-3.5 5.6-7.6.4-15.1 1.8-22.1 4.2-2.9 1-5.8 2.2-8.6 3.5-28.4 13.2-48.2 42.1-48.2 75.5 0 24.3 10.4 46.1 27 61.3 2.3 2.1 4.6 4 7.1 5.9 13.8 10.1 30.8 16.2 49.2 16.2 46.1 0 83.4-37.3 83.4-83.4.1-42.4-31.5-77.3-72.5-82.6z"/></svg>