<svg id="Layer_1" xmlns="http://www.w3.org/2000/svg" viewBox="0 0 299.3 289.3"><style>.st0{fill:#233f56}</style><path d="M130.6 59.8C127 26.9 99.1 1.2 65.3 1.2 31.4 1.2 3.6 26.9 0 59.8h130.6zM118.1 84.1c-7.3 22.5-28.3 38.3-52.8 38.3-24.5 0-45.6-15.8-52.8-38.3h105.6M130.6 74H0c3.6 32.9 31.4 58.6 65.3 58.6 33.8 0 61.7-25.6 65.3-58.6M114.6 171.2c22.5 7.3 38.3 28.3 38.3 52.8 0 24.5-15.8 45.6-38.3 52.8V171.2m-10.1-12.5v130.6c32.9-3.6 58.6-31.4 58.6-65.3s-25.7-61.7-58.6-65.3M80.2 171.2v105.7c-22.5-7.3-38.3-28.3-38.3-52.8-.1-24.6 15.8-45.7 38.3-52.9m10.1-12.5c-32.9 3.6-58.6 31.4-58.6 65.3s25.6 61.7 58.6 65.3V158.7zM163.1 124.8c-10.9 24.3-.1 52.9 24.2 63.9 24.3 10.9 52.9.1 63.8-24.2l19-42.2L182 82.7l-18.9 42.1zM250.5 10.1c5.4 0 10.7 1.1 15.6 3.4 19.2 8.6 27.8 31.3 19.1 50.5l-14.9 33-69.6-31.3 14.9-33c6.2-13.7 19.9-22.6 34.9-22.6m0-10.1c-18.4 0-36 10.6-44.1 28.5l-19 42.2 88.1 39.6 19-42.3c10.9-24.3.1-52.9-24.2-63.8-6.5-2.8-13.2-4.2-19.8-4.2"/></svg>