<svg xmlns="http://www.w3.org/2000/svg" viewBox="0 0 300 300"><path d="M131 65.2C127.4 32.3 99.5 6.6 65.7 6.6 31.8 6.6 4 32.3.4 65.2H131zM118.5 89.5c-7.3 22.5-28.3 38.3-52.8 38.3S20.1 112 12.9 89.5h105.6M131 79.4H.4C4 112.3 31.8 138 65.7 138c33.8 0 61.7-25.6 65.3-58.6M115 176.6c22.5 7.3 38.3 28.3 38.3 52.8S137.5 275 115 282.1V176.6m-10.1-12.5v130.6c32.9-3.6 58.6-31.4 58.6-65.3s-25.7-61.7-58.6-65.3M80.6 176.6v105.7C58.1 275 42.3 254 42.3 229.5c-.1-24.6 15.8-45.7 38.3-52.9m10.1-12.5c-32.9 3.6-58.6 31.4-58.6 65.3s25.6 61.7 58.6 65.3V164.1zM163.5 130.2c-10.9 24.3-.1 52.9 24.2 63.9 24.3 10.9 52.9.1 63.8-24.2l19-42.2-88.1-39.6-18.9 42.1zM250.9 15.5c5.4 0 10.7 1.1 15.6 3.4 19.2 8.6 27.8 31.3 19.1 50.5l-14.9 33-69.6-31.3 14.9-33c6.2-13.7 19.9-22.6 34.9-22.6m0-10.1c-18.4 0-36 10.6-44.1 28.5l-19 42.2 88.1 39.6 19-42.3c10.9-24.3.1-52.9-24.2-63.8-6.5-2.8-13.2-4.2-19.8-4.2"/></svg>