<svg id="Layer_1" xmlns="http://www.w3.org/2000/svg" viewBox="0 0 300 325.7"><style>.st0{fill:#213d55}</style><path class="st0" d="M149.8 172.4c-47.5 0-86.2-38.7-86.2-86.2S102.3 0 149.8 0 236 38.7 236 86.2s-38.7 86.2-86.2 86.2zm0-149C115.2 23.4 87 51.6 87 86.2c0 34.6 28.2 62.8 62.8 62.8s62.8-28.2 62.8-62.8c0-34.6-28.2-62.8-62.8-62.8zM11.7 325.7c-1.3 0-2.7-.2-4-.7-6.1-2.2-9.2-8.9-7.1-15 22.5-62.7 82.5-104.8 149.1-104.8S276.2 247.3 298.8 310c2.2 6.1-1 12.8-7.1 15-6.1 2.2-12.8-1-15-7.1-19.2-53.4-70.3-89.3-127-89.3s-107.8 35.9-127 89.3c-1.7 4.8-6.2 7.8-11 7.8z"/></svg>