<svg xmlns="http://www.w3.org/2000/svg" viewBox="0 0 300 300"><path d="M150.2 146.3c-47.7 0-86.4-38.8-86.4-86.4 0-47.7 38.8-86.4 86.4-86.4s86.4 38.8 86.4 86.4c0 47.6-38.7 86.4-86.4 86.4zm0-149.4c-34.7 0-62.9 28.2-62.9 62.9s28.2 62.9 62.9 62.9 62.9-28.2 62.9-62.9-28.2-62.9-62.9-62.9zM11.7 300c-1.3 0-2.7-.2-4-.7-6.1-2.2-9.3-8.9-7.1-15 22.6-62.9 82.7-105.1 149.5-105.1S277 221.4 299.6 284.3c2.2 6.1-1 12.8-7.1 15-6.1 2.2-12.8-1-15-7.1-19.3-53.6-70.5-89.6-127.4-89.6S42 238.6 22.7 292.2c-1.6 4.8-6.1 7.8-11 7.8z"/><g><circle cx="150" cy="150" r="80.3"/><path d="M150 300C67.3 300 0 232.7 0 150S67.3 0 150 0s150 67.3 150 150-67.3 150-150 150zm0-284.7C75.7 15.3 15.3 75.7 15.3 150S75.7 284.7 150 284.7 284.7 224.3 284.7 150 224.3 15.3 150 15.3z"/></g></svg>