<svg id="Layer_1" xmlns="http://www.w3.org/2000/svg" viewBox="0 0 300 300.3"><style>.st0{fill:#213d55}</style><path class="st0" d="M300 286.7c0-3.8-1.4-7-4.1-9.7L232 213.1c19.4-23.3 29-50.7 29-82.2 0-36.1-12.8-66.9-38.4-92.5-25.3-25.3-56-38-92.1-38C94.4.4 63.6 13 38 38.3 12.7 63.9 0 94.8 0 130.9 0 167 12.7 197.7 38 223c25.6 25.6 56.4 38.4 92.5 38.4 31.5 0 58.9-9.7 82.2-29l63.9 63.9c2.7 2.7 6 4.1 9.7 4.1 3.8 0 6.9-1.4 9.5-4.1 2.8-2.7 4.2-5.8 4.2-9.6M203.4 57.6c20.3 20.3 30.4 44.7 30.4 73.2 0 28.4-10 52.7-30 72.7l-.6.6c-20 20-44.2 30-72.7 30-28.6 0-53-10.1-73.2-30.4-20-20-30-44.3-30-72.9 0-28.6 10-53 30-73.2 20.3-20 44.7-30 73.2-30 28.6 0 52.9 10 72.9 30"/></svg>