<?xml version="1.0" encoding="utf-8"?>
<!-- Generator: Adobe Illustrator 19.2.1, SVG Export Plug-In . SVG Version: 6.00 Build 0)  -->
<svg version="1.1" id="Layer_1" xmlns="http://www.w3.org/2000/svg" xmlns:xlink="http://www.w3.org/1999/xlink" x="0px" y="0px"
	 viewBox="0 0 300 300" style="enable-background:new 0 0 300 300;" xml:space="preserve">
<g>
	<path d="M217.4,6c-51.1-5.8-97.1,30.8-103,81.8c-2.4,21,2.4,41.1,12.4,58l0.8,1.6c5.6-1,15-0.3,23.3,12.2c0.3,0.5,19,33,42.4,24.5
		c1.4-0.5,2.8,0.2,3.3,1.6c0.3,0.9-0.1,1.8-0.7,2.5c-0.3,0.3-0.5,0.6-0.8,0.8c-3.4,1.2-6.7,1.8-9.8,1.8c-22.4,0-37.8-27.1-38.6-28.5
		c-4.9-7.4-10-9.7-14.1-10.1c-0.7,0-1.4,0-2.1,0.1c-2.2,0.3-4.4,0.8-6.4,2c-8.4,5-9.7,18-3.6,24.9c2.8,2.3,5.4,4.6,7.7,6.9
		c1,1,1.9,2,2.8,3c8.3,9.2,13.3,19.1,14.9,29.3c0.2,1.4,0.2,2.6,0.3,3.9c20.6,23.5,43.5,11.8,46.7,10c1.1-0.1,2.1-0.1,3.1,0
		c0.3,0.2,0.7,0.3,0.9,0.6c0.4,0.6,0.4,1.4,0.2,2.1c-0.2,0.6-0.5,1.1-1.1,1.5c-0.2,0.1-8.9,5.3-20.9,5.3c-8.6,0-18.9-2.7-28.8-12
		c-0.1-0.1-0.1-0.1-0.2-0.2c-0.2,1.9-0.5,3.6-0.9,5.3c-2.1,8.9-6.3,14.6-6.5,15c-0.5,0.6-1.3,1-2,1c-0.5,0-1.1-0.2-1.6-0.5
		c-1.1-0.9-1.4-2.5-0.5-3.6c0,0,0.6-0.8,1.4-2.2c2.3-4.1,6.6-13.5,4.9-25.5c-1.6-11-7.8-21.6-18.5-31.5h-0.2
		c-0.9-0.9-1.7-1.7-2.5-2.5c-1.3-1.1-2.6-2.2-4-3.3c-0.1,0-0.1-0.1-0.2-0.1c-9.7-6.4-19.7-9.7-19.6-9.7c0.1,0.1-13.5-4.5-29-2.7
		c-15.5,1.5-31,9.2-35.8,12c-2.7,1.5-5,2.8-7.1,4c-0.9-1-1.9-2.3-3.1-3.3c-0.2-0.2-0.4-0.5-0.7-0.7c-4.1-3.7-8.5-5.9-14-6.3
		c-6.2-0.2-6.6,4.8-5.9,8.3c0.5,2.5,3.3,20.9,5.1,30.5c0.7,3.6,1.6,5.6,1.6,5.5c0.4,1.1,0.9,2.3,1.5,3.4
		c6.3,12.7,21.8,18.1,34.5,11.7c2.1-1,5.2-2.4,8.8-3.8c0.7-0.3,1.1-0.5,1.7-0.8c1.2-16.1,8.9-24.2,9.3-24.6c1-1,2.6-1,3.6,0
		c1,1,1,2.6,0,3.6c-0.3,0.4-7.3,7.8-8,22.8c0,1.8,0.1,4.1,0.4,7.3c0.3,1.8,0.8,3.6,1.3,5.5c26.5,90.8,142.5,36,168.4,7.4
		c14.7-16.2,24.6-34.6,26.6-48.5c1.2-8.1,0.8-12.9,0.3-18.7l0.2-0.9c-7.7-5.4-19.7-3.4-19.8-3.4c-1.4,0.3-2.7-0.7-3-2.1
		c-0.2-1.4,0.7-2.7,2.1-3c0.6-0.1,12.6-2.1,21.9,3.1l0.1-0.3c22.2-14.7,39.1-40.8,42.5-69.3C305.1,58,268.4,11.8,217.4,6"/>
</g>
</svg>
