<?xml version="1.0" encoding="utf-8"?>
<!-- Generator: Adobe Illustrator 19.2.1, SVG Export Plug-In . SVG Version: 6.00 Build 0)  -->
<svg version="1.1" id="Layer_1" xmlns="http://www.w3.org/2000/svg" xmlns:xlink="http://www.w3.org/1999/xlink" x="0px" y="0px"
	 viewBox="0 0 299.3 288.3" style="enable-background:new 0 0 299.3 288.3;" xml:space="preserve">
<g>
	<path d="M216.9,0.6C166-5.2,120.1,31.3,114.3,82.1c-2.4,20.9,2.4,41,12.4,57.8l0.8,1.6c5.6-1,14.9-0.3,23.2,12.2
		c0.3,0.5,18.9,32.9,42.2,24.4c1.4-0.5,2.8,0.2,3.3,1.6c0.3,0.9-0.1,1.8-0.7,2.5c-0.3,0.3-0.5,0.6-0.8,0.8c-3.4,1.2-6.7,1.8-9.8,1.8
		c-22.3,0-37.7-27-38.5-28.4c-4.9-7.4-10-9.7-14-10.1c-0.7,0-1.4,0-2.1,0.1c-2.2,0.3-4.4,0.8-6.4,2c-8.4,5-9.7,17.9-3.6,24.8
		c2.8,2.3,5.4,4.6,7.7,6.9c1,1,1.9,2,2.8,3c8.3,9.2,13.3,19,14.8,29.2c0.2,1.4,0.2,2.6,0.3,3.9c20.5,23.4,43.3,11.8,46.5,10
		c1.1-0.1,2.1-0.1,3.1,0c0.3,0.2,0.7,0.3,0.9,0.6c0.4,0.6,0.4,1.4,0.2,2.1c-0.2,0.6-0.5,1.1-1.1,1.5c-0.2,0.1-8.9,5.3-20.8,5.3
		c-8.6,0-18.8-2.7-28.7-12c-0.1-0.1-0.1-0.1-0.2-0.2c-0.2,1.9-0.5,3.6-0.9,5.3c-2.1,8.9-6.3,14.5-6.5,14.9c-0.5,0.6-1.3,1-2,1
		c-0.5,0-1.1-0.2-1.6-0.5c-1.1-0.9-1.4-2.5-0.5-3.6c0,0,0.6-0.8,1.4-2.2c2.3-4.1,6.6-13.5,4.9-25.4c-1.6-11-7.8-21.5-18.4-31.4
		l-0.2,0c-0.9-0.9-1.7-1.7-2.5-2.5c-1.3-1.1-2.6-2.2-4-3.3c-0.1,0-0.1-0.1-0.2-0.1c-9.7-6.4-19.6-9.7-19.5-9.7
		c0.1,0.1-13.5-4.5-28.9-2.7c-15.4,1.5-30.9,9.2-35.7,12c-2.7,1.5-5,2.8-7.1,4c-0.9-1-1.9-2.3-3.1-3.3c-0.2-0.2-0.4-0.5-0.7-0.7
		c-4.1-3.7-8.5-5.9-13.9-6.3c-6.2-0.2-6.6,4.8-5.9,8.3c0.5,2.5,3.3,20.8,5.1,30.4c0.7,3.6,1.6,5.6,1.6,5.5c0.4,1.1,0.9,2.3,1.5,3.4
		c6.3,12.7,21.7,18,34.4,11.7c2.1-1,5.2-2.4,8.8-3.8c0.7-0.3,1.1-0.5,1.7-0.8c1.2-16,8.9-24.1,9.3-24.5c1-1,2.6-1,3.6,0
		c1,1,1,2.6,0,3.6c-0.3,0.4-7.3,7.8-8,22.7c0,1.8,0.1,4.1,0.4,7.3c0.3,1.8,0.8,3.6,1.3,5.5c26.4,90.5,142,35.9,167.8,7.4
		c14.6-16.1,24.5-34.5,26.5-48.3c1.2-8.1,0.8-12.9,0.3-18.6l0.2-0.9c-7.7-5.4-19.6-3.4-19.7-3.4c-1.4,0.3-2.7-0.7-3-2.1
		c-0.2-1.4,0.7-2.7,2.1-3c0.6-0.1,12.6-2.1,21.8,3.1l0.1-0.3c22.1-14.6,39-40.7,42.3-69.1C304.2,52.4,267.7,6.4,216.9,0.6"/>
</g>
</svg>
