<?xml version="1.0" encoding="utf-8"?>
<!-- Generator: Adobe Illustrator 19.2.1, SVG Export Plug-In . SVG Version: 6.00 Build 0)  -->
<svg version="1.1" id="Layer_1" xmlns="http://www.w3.org/2000/svg" xmlns:xlink="http://www.w3.org/1999/xlink" x="0px" y="0px"
	 viewBox="0 0 300 300" style="enable-background:new 0 0 300 300;" xml:space="preserve">
<g>
	<path d="M288.5,247.9h-277C5.1,247.9,0,253,0,259.4c0,6.3,5.2,11.5,11.5,11.5h277c6.4,0,11.5-5.2,11.5-11.5
		C300,253,294.8,247.9,288.5,247.9z"/>
	<path d="M288.5,140.5h-277C5.1,140.5,0,145.6,0,152c0,6.4,5.2,11.5,11.5,11.5h277c6.4,0,11.5-5.2,11.5-11.5
		C300,145.6,294.8,140.5,288.5,140.5z"/>
	<path d="M11.5,52.2h277c6.4,0,11.5-5.2,11.5-11.5s-5.2-11.5-11.5-11.5h-277C5.2,29.2,0,34.4,0,40.7S5.2,52.2,11.5,52.2z"/>
</g>
</svg>
