<?xml version="1.0" encoding="utf-8"?>
<!-- Generator: Adobe Illustrator 19.2.1, SVG Export Plug-In . SVG Version: 6.00 Build 0)  -->
<svg version="1.1" id="Layer_1" xmlns="http://www.w3.org/2000/svg" xmlns:xlink="http://www.w3.org/1999/xlink" x="0px" y="0px"
	 viewBox="0 0 300 241.7" style="enable-background:new 0 0 300 241.7;" xml:space="preserve">
<style type="text/css">
	.st0{fill:#213D55;}
</style>
<path class="st0" d="M288.5,218.7h-277c-6.4,0-11.5,5.2-11.5,11.5s5.2,11.5,11.5,11.5h277c6.4,0,11.5-5.2,11.5-11.5
	S294.8,218.7,288.5,218.7z M288.5,111.3h-277c-6.4,0-11.5,5.2-11.5,11.5c0,6.4,5.2,11.5,11.5,11.5h277c6.4,0,11.5-5.2,11.5-11.5
	C300,116.4,294.8,111.3,288.5,111.3z M11.5,23h277c6.4,0,11.5-5.2,11.5-11.5S294.8,0,288.5,0h-277C5.2,0,0,5.2,0,11.5
	S5.2,23,11.5,23z"/>
</svg>
