<?xml version="1.0" encoding="utf-8"?>
<!-- Generator: Adobe Illustrator 19.2.1, SVG Export Plug-In . SVG Version: 6.00 Build 0)  -->
<svg version="1.1" id="Layer_1" xmlns="http://www.w3.org/2000/svg" xmlns:xlink="http://www.w3.org/1999/xlink" x="0px" y="0px"
	 viewBox="0 0 299.3 266.7" style="enable-background:new 0 0 299.3 266.7;" xml:space="preserve">
<style type="text/css">
	.st0{fill:#233F56;}
</style>
<g>
	<path class="st0" d="M129,109V138h-28.9c-5.7,0-10.4,4.7-10.4,10.4v20.6c0,5.7,4.7,10.3,10.4,10.3H129v28.9
		c0,5.7,4.6,10.3,10.3,10.3h20.6c5.7,0,10.3-4.6,10.3-10.3v-28.9h29c5.7,0,10.3-4.6,10.3-10.3v-20.6c0-5.7-4.6-10.4-10.3-10.4h-29
		V109c0-5.7-4.6-10.4-10.3-10.4h-20.6C133.6,98.7,129,103.3,129,109z M160.5,109v38.7l39.3,0.6v20.6l-0.6,0.6h-38.8l-0.6,39.3
		l-21.1-0.5v-38.7l-39.3-0.6l0.6-21.1h38.7l0.6-39.3L160.5,109z"/>
	<path class="st0" d="M296.1,120.8L156.2,2.3c-3.7-3.1-9.4-3.1-13.1,0L3.1,120.8c-2.8,2.4-3.9,6.1-2.6,9.5c1.4,3.7,5,6.1,9.2,6.1
		h35.2v130.3h211V136.4h33.7c4.2,0,7.8-2.4,9.2-6.1C300,126.9,299,123.2,296.1,120.8z M246.1,126.6v130.3H54.7V126.6l-43.9,0.6
		L149.9,9.8l137.9,116.8H246.1z M289.8,128.3L289.8,128.3l3.2-3.7L289.8,128.3z"/>
</g>
<g>
	<path class="st0" d="M199.2,142.9h-33.9V109c0-3-2.4-5.5-5.4-5.5h-20.6c-3,0-5.5,2.4-5.5,5.5v33.9H100c-3,0-5.5,2.4-5.5,5.5v20.6
		c0,3,2.4,5.5,5.5,5.5h33.8v33.8c0,3,2.4,5.5,5.5,5.5h20.6c3,0,5.4-2.4,5.4-5.5v-33.8h33.9c3,0,5.5-2.4,5.5-5.5v-20.6
		C204.7,145.3,202.3,142.9,199.2,142.9 M100,168.9v-20.6V168.9z"/>
</g>
</svg>
