<?xml version="1.0" encoding="utf-8"?>
<!-- Generator: Adobe Illustrator 19.2.1, SVG Export Plug-In . SVG Version: 6.00 Build 0)  -->
<svg version="1.1" id="Layer_1" xmlns="http://www.w3.org/2000/svg" xmlns:xlink="http://www.w3.org/1999/xlink" x="0px" y="0px"
	 viewBox="0 0 299.3 415.7" style="enable-background:new 0 0 299.3 415.7;" xml:space="preserve">
<g>
	<g>
		<path d="M276.1,41h-16.5v3.7v6.9h16.5c6.9,0,12.6,5.6,12.6,12.6v328.4c0,6.9-5.6,12.6-12.6,12.6H23.2
			c-6.9,0-12.6-5.6-12.6-12.6V64.1c0-6.9,5.6-12.6,12.6-12.6h16.5v-6.9V41H23.2C10.4,41,0,51.4,0,64.1v328.4
			c0,12.8,10.4,23.2,23.2,23.2h252.9c12.8,0,23.2-10.4,23.2-23.2V64.1C299.2,51.4,288.8,41,276.1,41z"/>
	</g>
	<g>
		<path d="M236.7,30.4H184V7.9c0-4.4-3.6-7.9-7.9-7.9h-52.8c-4.4,0-7.9,3.6-7.9,7.9v22.4H62.5c-4.4,0-7.9,3.6-7.9,7.9
			V41v3.7v6.9V59c0,4.4,3.6,7.9,7.9,7.9h174.2c4.4,0,7.9-3.6,7.9-7.9v-7.5v-6.9V41v-2.6C244.6,34,241.1,30.4,236.7,30.4z"/>
	</g>
	<g>
		<path d="M193.3,134.1H62.5c-4.4,0-7.9,3.6-7.9,7.9c0,4.4,3.6,7.9,7.9,7.9h130.7c4.4,0,7.9-3.6,7.9-7.9
			C201.2,137.6,197.7,134.1,193.3,134.1z"/>
	</g>
	<g>
		<path d="M193.3,172.6H62.5c-4.4,0-7.9,3.6-7.9,7.9c0,4.4,3.6,7.9,7.9,7.9h130.7c4.4,0,7.9-3.6,7.9-7.9
			C201.2,176.2,197.7,172.6,193.3,172.6z"/>
	</g>
	<g>
		<path d="M114.6,211.1h-52c-4.4,0-7.9,3.6-7.9,7.9c0,4.4,3.6,7.9,7.9,7.9h52c4.4,0,7.9-3.6,7.9-7.9
			C122.5,214.7,119,211.1,114.6,211.1z"/>
	</g>
</g>
</svg>
