<?xml version="1.0" encoding="utf-8"?>
<!-- Generator: Adobe Illustrator 19.2.1, SVG Export Plug-In . SVG Version: 6.00 Build 0)  -->
<svg version="1.1" id="Layer_1" xmlns="http://www.w3.org/2000/svg" xmlns:xlink="http://www.w3.org/1999/xlink" x="0px" y="0px"
	 viewBox="0 0 300 300" style="enable-background:new 0 0 300 300;" xml:space="preserve">
<g>
	<g>
		<path d="M274.6,75.1c-16.8-31.8-44.4-55.3-78.1-67c-1.6-0.6-3.2-1.2-4.9-1.8c-4.7-1.5-9.6-2.5-14.4-3.5
			c-7.4-1.5-14.8-2.5-22.4-2.8l-4.8,0C87.9,0,33.9,39.9,15.5,99.2c-11.1,35.9-7.5,74,10,107.3s47,57.7,83,68.8
			c0.5,0.1,0.8,0.2,1.3,0.3c6.3,1.9,12.7,3.4,19.1,4.3c21.3,3.2,43.3,1.5,64-5.2c43.9,25.3,48.3,25.3,51.3,25.3l2.9-0.1l2-1.4
			c1.2-0.8,2.3-1.6,2.9-3.6c1.7-4.5,1.4-15.8-3.2-50.6c-0.1-1-0.3-1.9-0.4-2.9c16.8-16.4,29.2-36.7,36.1-58.9
			C295.6,146.5,292.1,108.4,274.6,75.1z"/>
	</g>
</g>
</svg>
