<?xml version="1.0" encoding="utf-8"?>
<!-- Generator: Adobe Illustrator 19.2.1, SVG Export Plug-In . SVG Version: 6.00 Build 0)  -->
<svg version="1.1" id="Layer_1" xmlns="http://www.w3.org/2000/svg" xmlns:xlink="http://www.w3.org/1999/xlink" x="0px" y="0px"
	 viewBox="0 0 299.3 318.2" style="enable-background:new 0 0 299.3 318.2;" xml:space="preserve">
<g>
	<g>
		<path d="M282,79.7C264.2,46,234.9,21,199.2,8.6c-1.7-0.6-3.4-1.3-5.2-1.9c-5-1.6-10.2-2.6-15.3-3.7
			c-7.8-1.6-15.7-2.7-23.8-3L149.8,0C84,0,26.7,42.3,7.2,105.2c-11.8,38.1-8,78.5,10.6,113.8c18.6,35.3,49.8,61.2,88,73
			c0.5,0.1,0.9,0.2,1.4,0.3c6.7,2,13.5,3.6,20.3,4.6c22.6,3.4,45.9,1.6,67.9-5.5c46.6,26.8,51.2,26.8,54.4,26.8l3.1-0.1l2.1-1.5
			c1.3-0.9,2.4-1.7,3.1-3.8c1.8-4.8,1.5-16.8-3.4-53.7c-0.1-1.1-0.3-2-0.4-3.1c17.8-17.4,31-38.9,38.3-62.5
			C304.3,155.4,300.6,115,282,79.7z"/>
	</g>
</g>
</svg>
