<?xml version="1.0" encoding="utf-8"?>
<!-- Generator: Adobe Illustrator 19.2.1, SVG Export Plug-In . SVG Version: 6.00 Build 0)  -->
<svg version="1.1" id="Layer_1" xmlns="http://www.w3.org/2000/svg" xmlns:xlink="http://www.w3.org/1999/xlink" x="0px" y="0px"
	 viewBox="0 0 299.3 260.3" style="enable-background:new 0 0 299.3 260.3;" xml:space="preserve">
<g>
	<g>
		<path d="M104.8,251C51.9,251,9,208,9,155.2c0-50.5,39.3-91.9,89-95.4c-1.6,10.6,0.5,19.6,0.7,20.2
			c0.7,2.9,3.3,4.8,6.1,4.8c0.5,0,1-0.1,1.5-0.2c3.4-0.8,5.5-4.2,4.6-7.6c0-0.1-1.8-8.4,0-17.3c23.9,1.5,45.5,11.7,61.4,27.6
			c2.8-1.4,5.7-2.7,8.6-3.9c-17.1-18.1-40.5-30.2-66.7-32.5c0.5-0.9,1-1.8,1.6-2.6c5.6-7.1,15.3-10.7,29-10.7c3.5,0,6.3-2.8,6.3-6.3
			c0-3.5-2.8-6.3-6.3-6.3c-13.7,0-24.5,3.2-32.5,9.3c-0.7-3.9-1.8-7.6-3.2-11.3c-1.9-4.8-4.1-9.6-6.7-14C95.9-1.6,81.7-2.4,73.1,4.3
			c-11.4,8.8-10.5,26.7,2,33.9c2,1.1,4.3,1.8,6.6,2.2c8.1,1.5,16.1,1.3,24.2,0.3c-2.5,3.2-4.1,6.6-5.4,10C44.7,53,0,98.9,0,155.2
			C0,213,47,260,104.8,260c18.5,0,35.8-4.9,50.9-13.3c-2.5-2-4.9-4.1-7.1-6.4C135.4,247.1,120.5,251,104.8,251z"/>
	</g>
	<g>
		<path d="M226.6,90.1c2.1-2.1,4.6-3.8,7.5-5.2c3.4-1.6,7.4-2.7,11.9-3.3c2.5-0.3,5-0.6,7.8-0.6c3.5,0,6.3-2.8,6.3-6.3
			c0-3.5-2.8-6.3-6.3-6.3c-13.2,0-23.7,2.9-31.6,8.6c-2.4,1.7-4.5,3.8-6.3,6c-0.3,0.3-0.7,0.6-1,0.9c-1.4,1.8-2.5,3.7-3.5,5.6
			c-7.6,0.4-15,1.8-22,4.2c-2.9,1-5.8,2.2-8.6,3.5c-28.3,13.2-48,41.9-48,75.2c0,24.2,10.4,45.9,26.9,61.1c2.3,2.1,4.6,4,7.1,5.9
			c13.7,10.1,30.7,16.1,49,16.1c45.9,0,83.1-37.2,83.1-83.1C298.9,130.2,267.4,95.4,226.6,90.1z"/>
	</g>
</g>
</svg>
