<?xml version="1.0" encoding="utf-8"?>
<!-- Generator: Adobe Illustrator 19.2.1, SVG Export Plug-In . SVG Version: 6.00 Build 0)  -->
<svg version="1.1" id="Layer_1" xmlns="http://www.w3.org/2000/svg" xmlns:xlink="http://www.w3.org/1999/xlink" x="0px" y="0px"
	 viewBox="0 0 300 85" style="enable-background:new 0 0 300 85;" xml:space="preserve">
<style type="text/css">
	.st0{fill:#2E9EC6;}
	.st1{fill:#F26759;}
</style>
<g>
	<g>
		<g>
			<path class="st0" d="M32,69.3c0-0.3-3.1-14.4-6-23.1c-0.5-1.6-1.1-3.1-1.6-4.2l0.5-0.1c1.5,0,2.3-0.5,2.7-1.3
				c0.3-0.6,0.4-1.2,0.4-1.9c0-0.2,0-0.4-0.1-0.6c-0.1-0.8-0.9-1.7-1.9-2.7c-0.1-0.1-0.3-0.3-0.4-0.4c-0.6-0.5-1.3-1.1-1.9-1.6
				s-1.2-1-1.6-1.4c-0.1-0.1-0.5-1-0.9-1.7c-0.3-1.6-0.1-3.6-0.1-3.6c0.2,0,0.5,0,0.6-0.1c4.7-1,8.2-5.3,8.2-10.4
				c0-1.9-0.5-3.6-1.3-5.2c-0.4-0.9-1.7-2.4-2-2.6c0.4-1,1.2-3.5-0.2-6.4c-0.2-0.4-0.7-0.5-1.1-0.4c-0.2,0-3.5,0.6-6.1,2
				C18.5,4,18.4,5,18.5,5.7l0,0c-0.3,0-0.6,0.1-0.8,0.1c0-1.5-1.1-2.9-2.7-3.1c-0.2,0-0.5,0-0.7,0c-0.3-0.9-1-1.6-1.9-1.9
				C11.3,0.5,10.2,1,9.6,1.9C9.1,1.1,8.3,0.5,7.3,0.2C5.3-0.3,3.2,1,2.7,3c-0.2,0.6-0.1,1.3,0,1.9C1.6,4.8,0.5,5.5,0.3,6.6
				C0.1,7.4,0.4,8.2,0.9,8.7c-0.4,0.4-0.6,0.8-0.7,1.4c-0.2,1.1,0.5,2.2,1.5,2.5v0.1c-0.6,1.7,0.3,3.5,1.9,4c0.7,0.2,1.4,0.2,2.1,0
				c-0.1,1.1,0.7,2.1,1.7,2.3c0.8,0,1.5-0.3,2-0.9c0.2,1.3,0.7,2.5,1.4,3.6c1,1.4,2.6,3.1,5.4,4.5c0.1,0,0.1,0,0.2,0.1l0,0l0,0l0,0
				c0,1.2-0.3,2.5-0.5,3.3c-0.2,0.6-0.4,1.3-0.7,2.3c-0.1,0.4-0.2,0.8-0.3,1.3c-0.2,0.8-0.4,1.6-0.4,2.4c0,0.3-0.1,0.5-0.1,0.8
				c0,0.1,0,0.2,0,0.4c0,0.9,0,1.9,0.2,2.8c0.7,3.1,2.1,5.9,2.3,9c0,0.4,0,0.9,0.1,1.3c-0.1,3.1-0.6,6.7-1.2,10.1
				c-0.5,2.5-1.6,5.3-2.1,7.9c-0.2,0.9-0.3,1.8-0.3,2.6l0,0c0,1.2,1.3,1.3,1.3,1.3l0,0l0,0h0.1c0.3,0,2.3,0,2.3,0l0,0
				c0,3.1,0,7,0.1,8.8c0,0.1,0,0.2,0,0.3l0,0c0,0.4,0.1,0.9,0.3,1.2c0,0,0,0.1,0.1,0.1l0,0c0.6,1.2,1.7,2,3.1,2h4.2
				c0.4,0,1-0.1,0.8-0.9s-0.8-1.4-1.6-1.9l0,0c0-0.1,0.1-0.3,0.1-0.4c0.4-1.9,1-5.2,1.6-7.9c0.1-0.3,0.1-0.9,0.2-1.4l0,0l0,0
				c1.5,0,2.9-0.1,3.7-0.1c2.5,0,2.7-1.2,2.7-2C32,69.5,32,69.4,32,69.3z M19.6,5.6c-0.2,0-0.3,0-0.5,0C19.3,5.6,19.4,5.6,19.6,5.6
				c2.7,0,5.1,1,7,2.7l0,0l0,0C24.7,6.6,22.3,5.6,19.6,5.6z"/>
		</g>
	</g>
	<g>
		<path class="st1" d="M44.6,66.5L44.6,66.5c0-10.3,7.9-18.8,18.6-18.8c5.6,0,9.5,1.8,12.5,4.5c0.5,0.5,1.3,1.5,1.3,2.8
			c0,2.1-1.7,3.7-3.8,3.7c-1,0-1.9-0.4-2.4-0.8c-2.1-1.8-4.4-3-7.6-3c-6,0-10.4,5.1-10.4,11.4v0.1c0,6.4,4.4,11.4,10.7,11.4
			c3.3,0,5.8-1.3,8-3.2c0.5-0.4,1.3-0.9,2.2-0.9c2,0,3.5,1.6,3.5,3.6c0,1.1-0.4,2-1.2,2.6c-3.2,3-7,5.1-13,5.1
			C52.4,85,44.6,76.6,44.6,66.5"/>
	</g>
	<g>
		<path class="st1" d="M80.2,66.5L80.2,66.5c0-10.3,8.1-18.8,19.1-18.8s19,8.3,19,18.6v0.1c0,10.2-8.1,18.6-19.2,18.6
			C88.2,85,80.2,76.6,80.2,66.5 M110.1,66.5L110.1,66.5c0-6.4-4.5-11.6-11-11.6c-6.6,0-10.8,5.1-10.8,11.4v0.1
			c0,6.2,4.5,11.4,10.9,11.4C105.9,77.8,110.1,72.6,110.1,66.5"/>
	</g>
	<g>
		<path class="st1" d="M124.6,52.1c0-2.3,1.8-4.1,4.1-4.1c2.3,0,4.1,1.8,4.1,4.1v1.8c2.3-3.3,5.6-6.2,11.2-6.2
			c8.1,0,12.7,5.4,12.7,13.7v19.1c0,2.3-1.8,4.1-4.1,4.1s-4.1-1.8-4.1-4.1V63.8c0-5.6-2.8-8.7-7.7-8.7c-4.7,0-8.1,3.3-8.1,8.9v16.5
			c0,2.3-1.8,4.1-4.1,4.1c-2.2,0-4.1-1.8-4.1-4.1V52.1H124.6z"/>
	</g>
	<g>
		<path class="st1" d="M164.5,52.1c0-2.3,1.8-4.1,4.1-4.1s4.1,1.8,4.1,4.1v1.8c2.3-3.3,5.6-6.2,11.2-6.2c8.1,0,12.7,5.4,12.7,13.7
			v19.1c0,2.3-1.8,4.1-4.1,4.1s-4.1-1.8-4.1-4.1V63.8c0-5.6-2.8-8.7-7.7-8.7c-4.7,0-8.1,3.3-8.1,8.9v16.5c0,2.3-1.8,4.1-4.1,4.1
			c-2.2,0-4.1-1.8-4.1-4.1V52.1H164.5z"/>
	</g>
	<g>
		<path class="st1" d="M220.9,85c-10.4,0-18.4-7.5-18.4-18.6v-0.1c0-10.2,7.2-18.6,17.5-18.6c11.4,0,17,9.3,17,17.6
			c0,2.3-1.8,3.9-3.9,3.9h-22.4c0.9,5.8,5,9.1,10.3,9.1c3.5,0,6.2-1.2,8.5-3.1c0.6-0.5,1.1-0.7,2.1-0.7c1.8,0,3.3,1.4,3.3,3.3
			c0,1-0.5,1.9-1.1,2.5C230.5,83.1,226.4,85,220.9,85 M229,63.8c-0.5-5.3-3.7-9.4-9.1-9.4c-5,0-8.5,3.9-9.3,9.4
			C210.6,63.8,229,63.8,229,63.8z"/>
	</g>
	<g>
		<path class="st1" d="M241.4,66.5L241.4,66.5c0-10.3,7.9-18.8,18.6-18.8c5.6,0,9.5,1.8,12.5,4.5c0.5,0.5,1.3,1.5,1.3,2.8
			c0,2.1-1.7,3.7-3.8,3.7c-1,0-1.9-0.4-2.4-0.8c-2.1-1.8-4.4-3-7.7-3c-6,0-10.4,5.1-10.4,11.4v0.1c0,6.4,4.4,11.4,10.7,11.4
			c3.3,0,5.8-1.3,8-3.2c0.5-0.4,1.3-0.9,2.2-0.9c2,0,3.5,1.6,3.5,3.6c0,1.1-0.4,2-1.2,2.6c-3.2,3-7,5.1-13,5.1
			C249.2,85,241.4,76.6,241.4,66.5"/>
	</g>
	<g>
		<path class="st1" d="M281.7,74.3V55.4h-1.4c-2,0-3.5-1.6-3.5-3.5c0-2,1.6-3.5,3.5-3.5h1.4v-6.1c0-2.2,1.8-4.1,4.1-4.1
			c2.2,0,4.1,1.8,4.1,4.1v6.1h6.4c2,0,3.6,1.6,3.6,3.5c0,2-1.6,3.5-3.6,3.5h-6.4v17.5c0,3.2,1.6,4.5,4.4,4.5c0.9,0,1.8-0.2,2-0.2
			c1.8,0,3.5,1.5,3.5,3.4c0,1.5-1,2.7-2.2,3.2c-1.8,0.6-3.5,0.9-5.6,0.9C285.9,84.8,281.7,82.1,281.7,74.3"/>
	</g>
	<g>
		<path class="st0" d="M47,3.4c0-1.4,1.2-2.6,2.6-2.6c1.5,0,2.6,1.2,2.6,2.6v3.8c2.3-3.8,6-6.8,12-6.8c8.5,0,13.4,5.7,13.4,14v19.4
			c0,1.5-1.2,2.6-2.6,2.6c-1.5,0-2.6-1.2-2.6-2.6V15.6c0-6.5-3.5-10.5-9.7-10.5c-6,0-10.5,4.4-10.5,11v17.7c0,1.5-1.1,2.6-2.6,2.6
			S47,35.2,47,33.8C47,33.8,47,3.4,47,3.4z"/>
	</g>
	<g>
		<path class="st0" d="M114.7,33.8c0,1.4-1.1,2.6-2.6,2.6c-1.4,0-2.6-1.2-2.6-2.6V30c-2.4,3.8-6,6.8-12,6.8c-8.5,0-13.4-5.7-13.4-14
			V3.4c0-1.5,1.1-2.6,2.6-2.6c1.4,0,2.6,1.2,2.6,2.6v18.1c0,6.5,3.5,10.6,9.7,10.6c6,0,10.5-4.4,10.5-11V3.4c0-1.5,1.1-2.6,2.6-2.6
			c1.4,0,2.6,1.2,2.6,2.6C114.7,3.4,114.7,33.8,114.7,33.8z"/>
	</g>
	<g>
		<path class="st0" d="M123.7,3.4c0-1.4,1.2-2.6,2.6-2.6c1.5,0,2.6,1.2,2.6,2.6V10c2.6-5.8,7.7-9.3,12.1-9.3c1.6,0,2.6,1.2,2.6,2.6
			s-0.9,2.4-2.3,2.6c-6.8,0.8-12.3,5.9-12.3,16v11.9c0,1.4-1.1,2.6-2.6,2.6s-2.6-1.2-2.6-2.6V3.4H123.7z"/>
	</g>
	<g>
		<path class="st0" d="M146.5,32.3c-0.5-0.3-0.9-1-0.9-1.9c0-1.2,1-2.2,2.3-2.2c0.5,0,0.9,0.1,1.3,0.4c3.6,2.4,7.3,3.7,11.1,3.7
			c4.2,0,7.2-2.2,7.2-5.6v-0.1c0-3.5-4.1-4.9-8.7-6.2c-5.5-1.6-11.6-3.5-11.6-9.9v-0.1c0-6,5-10,11.9-10c3.7,0,7.8,1.2,11.2,3
			c0.7,0.4,1.3,1.2,1.3,2.2c0,1.2-1,2.2-2.3,2.2c-0.5,0-0.9-0.1-1.2-0.3c-3-1.7-6.2-2.7-9.1-2.7c-4.1,0-6.8,2.2-6.8,5.1v0.2
			c0,3.3,4.3,4.6,9,6c5.4,1.6,11.2,3.7,11.2,10v0.1c0,6.6-5.5,10.5-12.5,10.5C155.3,36.7,150.3,35,146.5,32.3z"/>
	</g>
	<g>
		<path class="st0" d="M193.3,36.9c-9.6,0-17.5-7.4-17.5-18.2v-0.1c0-10.1,7.1-18.2,16.8-18.2c10.4,0,16.2,8.5,16.2,17.7
			c0,1.4-1.2,2.4-2.4,2.4h-25.3c0.7,7.6,6.1,11.8,12.3,11.8c4.3,0,7.5-1.7,10.1-4.1c0.4-0.3,0.9-0.6,1.5-0.6c1.3,0,2.3,1,2.3,2.2
			c0,0.6-0.3,1.2-0.8,1.7C203.2,34.8,199.3,36.9,193.3,36.9z M203.7,16.6c-0.5-6.4-4.2-11.9-11.2-11.9c-6.1,0-10.7,5.1-11.4,11.9
			H203.7z"/>
	</g>
</g>
</svg>
