<?xml version="1.0" encoding="utf-8"?>
<!-- Generator: Adobe Illustrator 19.2.1, SVG Export Plug-In . SVG Version: 6.00 Build 0)  -->
<svg version="1.1" id="Layer_1" xmlns="http://www.w3.org/2000/svg" xmlns:xlink="http://www.w3.org/1999/xlink" x="0px" y="0px"
	 viewBox="0 0 299.3 289.3" style="enable-background:new 0 0 299.3 289.3;" xml:space="preserve">
<style type="text/css">
	.st0{fill:#233F56;}
</style>
<g>
	<path d="M130.6,59.8C127,26.9,99.1,1.2,65.3,1.2C31.4,1.2,3.6,26.9,0,59.8H130.6z"/>
</g>
<g>
	<path d="M118.1,84.1c-7.3,22.5-28.3,38.3-52.8,38.3c-24.5,0-45.6-15.8-52.8-38.3H118.1 M130.6,74H0
		c3.6,32.9,31.4,58.6,65.3,58.6C99.1,132.6,127,107,130.6,74"/>
</g>
<g>
	<path d="M114.6,171.2c22.5,7.3,38.3,28.3,38.3,52.8c0,24.5-15.8,45.6-38.3,52.8V171.2 M104.5,158.7v130.6
		c32.9-3.6,58.6-31.4,58.6-65.3C163.1,190.1,137.4,162.3,104.5,158.7"/>
</g>
<g>
	<path d="M80.2,171.2v105.7c-22.5-7.3-38.3-28.3-38.3-52.8C41.8,199.5,57.7,178.4,80.2,171.2 M90.3,158.7
		c-32.9,3.6-58.6,31.4-58.6,65.3c0,33.9,25.6,61.7,58.6,65.3V158.7z"/>
</g>
<g>
	<path d="M163.1,124.8c-10.9,24.3-0.1,52.9,24.2,63.9c24.3,10.9,52.9,0.1,63.8-24.2l19-42.2l-88.1-39.6L163.1,124.8z"/>
</g>
<g>
	<path d="M250.5,10.1c5.4,0,10.7,1.1,15.6,3.4c19.2,8.6,27.8,31.3,19.1,50.5l-14.9,33l-69.6-31.3l14.9-33
		C221.8,19,235.5,10.1,250.5,10.1 M250.5,0c-18.4,0-36,10.6-44.1,28.5l-19,42.2l88.1,39.6l19-42.3c10.9-24.3,0.1-52.9-24.2-63.8
		C263.8,1.4,257.1,0,250.5,0"/>
</g>
</svg>
