<?xml version="1.0" encoding="utf-8"?>
<!-- Generator: Adobe Illustrator 19.2.1, SVG Export Plug-In . SVG Version: 6.00 Build 0)  -->
<svg version="1.1" id="Layer_1" xmlns="http://www.w3.org/2000/svg" xmlns:xlink="http://www.w3.org/1999/xlink" x="0px" y="0px"
	 viewBox="0 0 300 325.7" style="enable-background:new 0 0 300 325.7;" xml:space="preserve">
<style type="text/css">
	.st0{fill:#213D55;}
</style>
<g>
	<path class="st0" d="M149.8,172.4c-47.5,0-86.2-38.7-86.2-86.2C63.6,38.7,102.3,0,149.8,0S236,38.7,236,86.2
		C236,133.7,197.3,172.4,149.8,172.4z M149.8,23.4C115.2,23.4,87,51.6,87,86.2c0,34.6,28.2,62.8,62.8,62.8s62.8-28.2,62.8-62.8
		C212.6,51.6,184.4,23.4,149.8,23.4z"/>
</g>
<g>
	<path class="st0" d="M11.7,325.7c-1.3,0-2.7-0.2-4-0.7c-6.1-2.2-9.2-8.9-7.1-15c22.5-62.7,82.5-104.8,149.1-104.8
		c66.6,0,126.5,42.1,149.1,104.8c2.2,6.1-1,12.8-7.1,15c-6.1,2.2-12.8-1-15-7.1c-19.2-53.4-70.3-89.3-127-89.3
		S41.9,264.5,22.7,317.9C21,322.7,16.5,325.7,11.7,325.7z"/>
</g>
</svg>
