<?xml version="1.0" encoding="utf-8"?>
<!-- Generator: Adobe Illustrator 19.2.1, SVG Export Plug-In . SVG Version: 6.00 Build 0)  -->
<svg version="1.1" xmlns="http://www.w3.org/2000/svg" xmlns:xlink="http://www.w3.org/1999/xlink" x="0px" y="0px"
	 viewBox="0 0 300 300" style="enable-background:new 0 0 300 300;" xml:space="preserve">
<g id="Layer_1">
	<g>
		<g>
			<path d="M150.2,146.3c-47.7,0-86.4-38.8-86.4-86.4c0-47.7,38.8-86.4,86.4-86.4s86.4,38.8,86.4,86.4
				C236.6,107.5,197.9,146.3,150.2,146.3z M150.2-3.1c-34.7,0-62.9,28.2-62.9,62.9c0,34.7,28.2,62.9,62.9,62.9s62.9-28.2,62.9-62.9
				C213.1,25.1,184.9-3.1,150.2-3.1z"/>
		</g>
		<g>
			<path d="M11.7,300c-1.3,0-2.7-0.2-4-0.7c-6.1-2.2-9.3-8.9-7.1-15c22.6-62.9,82.7-105.1,149.5-105.1
				c66.8,0,126.9,42.2,149.5,105.1c2.2,6.1-1,12.8-7.1,15c-6.1,2.2-12.8-1-15-7.1c-19.3-53.6-70.5-89.6-127.4-89.6
				s-108.1,36-127.4,89.6C21.1,297,16.6,300,11.7,300z"/>
		</g>
	</g>
</g>
<g id="Layer_2">
	<g>
		<path d="M150,300C67.3,300,0,232.7,0,150S67.3,0,150,0s150,67.3,150,150S232.7,300,150,300z M150,15.3
			C75.7,15.3,15.3,75.7,15.3,150S75.7,284.7,150,284.7S284.7,224.3,284.7,150S224.3,15.3,150,15.3z"/>
	</g>
</g>
</svg>
