<?xml version="1.0" encoding="utf-8"?>
<!-- Generator: Adobe Illustrator 19.2.1, SVG Export Plug-In . SVG Version: 6.00 Build 0)  -->
<svg version="1.1" id="Layer_1" xmlns="http://www.w3.org/2000/svg" xmlns:xlink="http://www.w3.org/1999/xlink" x="0px" y="0px"
	 viewBox="0 0 300 300" style="enable-background:new 0 0 300 300;" xml:space="preserve">
<path d="M300,286.3c0-3.8-1.4-7-4.1-9.7L232,212.7c19.4-23.3,29-50.7,29-82.2c0-36.1-12.8-66.9-38.4-92.5c-25.3-25.3-56-38-92.1-38
	C94.4,0,63.6,12.6,38,37.9C12.7,63.5,0,94.4,0,130.5s12.7,66.8,38,92.1c25.6,25.6,56.4,38.4,92.5,38.4c31.5,0,58.9-9.7,82.2-29
	l63.9,63.9c2.7,2.7,6,4.1,9.7,4.1c3.8,0,6.9-1.4,9.5-4.1C298.6,293.2,300,290.1,300,286.3 M203.4,57.2
	c20.3,20.3,30.4,44.7,30.4,73.2c0,28.4-10,52.7-30,72.7l-0.6,0.6c-20,20-44.2,30-72.7,30c-28.6,0-53-10.1-73.2-30.4
	c-20-20-30-44.3-30-72.9s10-53,30-73.2c20.3-20,44.7-30,73.2-30C159.1,27.2,183.4,37.2,203.4,57.2"/>
</svg>
