<?xml version="1.0" encoding="utf-8"?>
<!-- Generator: Adobe Illustrator 19.2.1, SVG Export Plug-In . SVG Version: 6.00 Build 0)  -->
<svg version="1.1" id="Layer_1" xmlns="http://www.w3.org/2000/svg" xmlns:xlink="http://www.w3.org/1999/xlink" x="0px" y="0px"
	 viewBox="0 0 300 300.3" style="enable-background:new 0 0 300 300.3;" xml:space="preserve">
<style type="text/css">
	.st0{fill:#213D55;}
</style>
<path class="st0" d="M300,286.7c0-3.8-1.4-7-4.1-9.7L232,213.1c19.4-23.3,29-50.7,29-82.2c0-36.1-12.8-66.9-38.4-92.5
	c-25.3-25.3-56-38-92.1-38C94.4,0.4,63.6,13,38,38.3C12.7,63.9,0,94.8,0,130.9C0,167,12.7,197.7,38,223
	c25.6,25.6,56.4,38.4,92.5,38.4c31.5,0,58.9-9.7,82.2-29l63.9,63.9c2.7,2.7,6,4.1,9.7,4.1c3.8,0,6.9-1.4,9.5-4.1
	C298.6,293.6,300,290.5,300,286.7 M203.4,57.6c20.3,20.3,30.4,44.7,30.4,73.2c0,28.4-10,52.7-30,72.7l-0.6,0.6
	c-20,20-44.2,30-72.7,30c-28.6,0-53-10.1-73.2-30.4c-20-20-30-44.3-30-72.9c0-28.6,10-53,30-73.2c20.3-20,44.7-30,73.2-30
	C159.1,27.6,183.4,37.6,203.4,57.6"/>
</svg>
