<?xml version="1.0" encoding="utf-8"?>
<!-- Generator: Adobe Illustrator 19.2.1, SVG Export Plug-In . SVG Version: 6.00 Build 0)  -->
<svg version="1.1" id="Layer_1" xmlns="http://www.w3.org/2000/svg" xmlns:xlink="http://www.w3.org/1999/xlink" x="0px" y="0px"
	 viewBox="0 0 299.3 285.1" style="enable-background:new 0 0 299.3 285.1;" xml:space="preserve">
<style type="text/css">
	.st0{fill:#233F56;}
</style>
<g>
	<path class="st0" d="M155,3.3l41.6,84.2c0.9,1.8,2.6,3,4.5,3.3l93,13.5c4.9,0.7,6.9,6.8,3.3,10.2l-67.3,65.6
		c-1.4,1.4-2.1,3.4-1.7,5.3l15.9,92.6c0.8,4.9-4.3,8.6-8.7,6.3l-83.2-43.7c-1.8-0.9-3.8-0.9-5.6,0l-83.2,43.7
		c-4.4,2.3-9.5-1.4-8.7-6.3l15.9-92.6c0.3-1.9-0.3-3.9-1.7-5.3L1.8,114.6c-3.6-3.5-1.6-9.5,3.3-10.2l93-13.5c2-0.3,3.6-1.5,4.5-3.3
		l41.6-84.2C146.4-1.1,152.8-1.1,155,3.3z"/>
</g>
</svg>
